<?xml version="1.0" encoding="UTF-8" standalone="no"?>
<!DOCTYPE svg PUBLIC "-//W3C//DTD SVG 1.1//EN"
 "http://www.w3.org/Graphics/SVG/1.1/DTD/svg11.dtd">
<!-- Generated by graphviz version 2.38.0 (20140413.2041)
 -->
<!-- Title: G Pages: 1 -->
<svg width="393pt" height="186pt"
 viewBox="0.00 0.00 392.69 186.00" xmlns="http://www.w3.org/2000/svg" xmlns:xlink="http://www.w3.org/1999/xlink">
<g id="graph0" class="graph" transform="scale(1 1) rotate(0) translate(4 182)">
<title>G</title>
<polygon fill="white" stroke="none" points="-4,4 -4,-182 388.686,-182 388.686,4 -4,4"/>
<g id="clust1" class="cluster"><title>cluster_Global</title>
<path fill="none" stroke="gray" d="M20,-8C20,-8 364.686,-8 364.686,-8 370.686,-8 376.686,-14 376.686,-20 376.686,-20 376.686,-158 376.686,-158 376.686,-164 370.686,-170 364.686,-170 364.686,-170 20,-170 20,-170 14,-170 8,-164 8,-158 8,-158 8,-20 8,-20 8,-14 14,-8 20,-8"/>
<text text-anchor="middle" x="192.343" y="-157.2" font-family="Times,serif" font-size="11.00" fill="gray">Global</text>
</g>
<g id="clust2" class="cluster"><title>cluster_\FreeMobile</title>
<path fill="none" stroke="gray" d="M246.686,-16C246.686,-16 356.686,-16 356.686,-16 362.686,-16 368.686,-22 368.686,-28 368.686,-28 368.686,-130 368.686,-130 368.686,-136 362.686,-142 356.686,-142 356.686,-142 246.686,-142 246.686,-142 240.686,-142 234.686,-136 234.686,-130 234.686,-130 234.686,-28 234.686,-28 234.686,-22 240.686,-16 246.686,-16"/>
<text text-anchor="middle" x="301.686" y="-129.2" font-family="Times,serif" font-size="11.00" fill="gray">FreeMobile</text>
</g>
<!-- \\FreeMobile\\Client -->
<g id="node1" class="node"><title>\\FreeMobile\\Client</title>
<polygon fill="none" stroke="black" points="330.186,-114 273.186,-114 273.186,-78 330.186,-78 330.186,-114"/>
<text text-anchor="middle" x="301.686" y="-93.2" font-family="Courier,monospace" font-size="11.00">Client</text>
</g>
<!-- \\FreeMobile\\ClientException -->
<g id="node2" class="node"><title>\\FreeMobile\\ClientException</title>
<polygon fill="none" stroke="black" points="360.686,-60 242.686,-60 242.686,-24 360.686,-24 360.686,-60"/>
<text text-anchor="middle" x="301.686" y="-39.2" font-family="Courier,monospace" font-size="11.00">ClientException</text>
</g>
<!-- RuntimeException -->
<g id="node3" class="node"><title>RuntimeException</title>
<ellipse fill="none" stroke="black" cx="93.3431" cy="-42" rx="77.1866" ry="18"/>
<text text-anchor="middle" x="93.3431" y="-38.3" font-family="Times,serif" font-size="14.00" fill="gray">RuntimeException</text>
</g>
<!-- \\FreeMobile\\ClientException&#45;&gt;RuntimeException -->
<g id="edge1" class="edge"><title>\\FreeMobile\\ClientException&#45;&gt;RuntimeException</title>
<path fill="none" stroke="black" d="M242.659,-42C223.503,-42 201.761,-42 180.942,-42"/>
<polygon fill="none" stroke="black" points="180.812,-38.5001 170.812,-42 180.812,-45.5001 180.812,-38.5001"/>
</g>
</g>
</svg>
